<svg xmlns="http://www.w3.org/2000/svg" xmlns:xlink="http://www.w3.org/1999/xlink" xmlns:lucid="lucid" width="1908.33" height="571.53"><g transform="translate(-257.99999999999994 -241.33333333333331)" lucid:page-tab-id="0_0"><path d="M0 0h2656v1760H0z" fill="#fff"/><path d="M571.33 398.33c0-2.76 2.24-5 5-5h226c2.76 0 5 2.24 5 5v162c0 2.76-2.24 5-5 5h-226c-2.76 0-5-2.24-5-5z" stroke="#000" stroke-width="2" fill="#fff"/><path d="M571.33 431h236" stroke="#000" stroke-width="2" fill="none"/><use xlink:href="#a" transform="matrix(1,0,0,1,579.3333333333333,393.3333333333333) translate(50.19999999999999 22.6)"/><use xlink:href="#b" transform="matrix(1,0,0,1,583.3333333333333,438.93333333333334) translate(0 14.4)"/><use xlink:href="#c" transform="matrix(1,0,0,1,583.3333333333333,438.93333333333334) translate(0 36)"/><use xlink:href="#d" transform="matrix(1,0,0,1,583.3333333333333,438.93333333333334) translate(0 57.6)"/><use xlink:href="#e" transform="matrix(1,0,0,1,583.3333333333333,438.93333333333334) translate(0 79.20000000000002)"/><use xlink:href="#f" transform="matrix(1,0,0,1,583.3333333333333,438.93333333333334) translate(0 100.80000000000001)"/><path d="M991.33 398.33c0-2.76 2.24-5 5-5h226c2.76 0 5 2.24 5 5v224.4c0 2.76-2.24 5-5 5h-226c-2.76 0-5-2.24-5-5z" stroke="#000" stroke-width="2" fill="#fff"/><path d="M991.33 431h236" stroke="#000" stroke-width="2" fill="none"/><use xlink:href="#g" transform="matrix(1,0,0,1,999.3333333333333,393.3333333333334) translate(25.775000000000006 22.6)"/><use xlink:href="#h" transform="matrix(1,0,0,1,1003.3333333333333,438.93333333333345) translate(0 14.4)"/><use xlink:href="#i" transform="matrix(1,0,0,1,1003.3333333333333,438.93333333333345) translate(0 36)"/><use xlink:href="#j" transform="matrix(1,0,0,1,1003.3333333333333,438.93333333333345) translate(0 57.6)"/><use xlink:href="#k" transform="matrix(1,0,0,1,1003.3333333333333,438.93333333333345) translate(0 79.20000000000002)"/><use xlink:href="#l" transform="matrix(1,0,0,1,1003.3333333333333,438.93333333333345) translate(0 100.80000000000001)"/><use xlink:href="#m" transform="matrix(1,0,0,1,1003.3333333333333,438.93333333333345) translate(0 122.4)"/><use xlink:href="#n" transform="matrix(1,0,0,1,1003.3333333333333,438.93333333333345) translate(0 144)"/><use xlink:href="#o" transform="matrix(1,0,0,1,1003.3333333333333,438.93333333333345) translate(0 165.6)"/><path d="M991.33 266.33c0-2.76 2.24-5 5-5H1221c2.76 0 5 2.24 5 5v32.94c0 2.76-2.24 5-5 5H996.33c-2.76 0-5-2.24-5-5z" stroke="#000" stroke-width="2" fill="#fff"/><use xlink:href="#p" transform="matrix(1,0,0,1,999.3333333333335,269.3333333333335) translate(37.75 17.1)"/><path d="M572 267.67c0-2.76 2.24-5 5-5h224.67c2.76 0 5 2.24 5 5v32.93c0 2.76-2.24 5-5 5H577c-2.76 0-5-2.24-5-5z" stroke="#000" stroke-width="2" fill="#fff"/><use xlink:href="#q" transform="matrix(1,0,0,1,580,270.66666666666674) translate(55.64999999999999 17.1)"/><path d="M689.33 330.56v61.77" stroke="#000" stroke-width="2" fill="none"/><path d="M702.06 330.08H676.6l12.73-21.52z" fill="#fff"/><path d="M703.8 331.08h-28.95l14.48-24.48zm-25.44-2h21.95l-10.97-18.55zM690.33 393.33h-2v-1h2z"/><path d="M808.33 479.33H972.1" stroke="#000" stroke-width="2" fill="none"/><path d="M808.33 480.33h-1v-2h1zM987.1 479.33l-14.27 4.64v-9.27z"/><path d="M990.33 479.33l-18.5 6.02v-12.03zm-16.5 3.26l10.03-3.27-10.03-3.26z"/><use xlink:href="#r" transform="matrix(1,0,0,1,812.1666666666666,483.3333333333333) translate(0 14.4)"/><path d="M1109.33 329.23v63.1" stroke="#000" stroke-width="2" fill="none"/><path d="M1122.06 328.75h-25.45l12.73-21.52z" fill="#fff"/><path d="M1123.8 329.75h-28.95l14.48-24.48zm-25.44-2h21.95l-10.97-18.55zM1110.33 393.33h-2v-1h2z"/><path d="M1109.33 628.73V671c0 2.76 2.24 5 5 5h725.77" stroke="#000" stroke-width="2" fill="none"/><path d="M1110.33 628.73h-2v-1h2zM1855.1 676l-14.27 4.64v-9.28z"/><path d="M1858.33 676l-18.5 6v-12zm-16.5 3.26l10.03-3.26-10.03-3.26z"/><use xlink:href="#s" transform="matrix(1,0,0,1,1117.3333333333333,630.3996180811305) translate(0 14.4)"/><path d="M1228.33 445.33h169.1" stroke="#000" stroke-width="2" fill="none"/><path d="M1228.33 446.33h-1v-2h1zM1412.43 445.33l-14.27 4.64v-9.27z"/><path d="M1415.67 445.33l-18.5 6.02v-12.03zm-16.5 3.26l10.02-3.27-10.04-3.26z"/><use xlink:href="#t" transform="matrix(1,0,0,1,1229.55,449.3333333333333) translate(0 14.4)"/><path d="M1416.67 545c0-2.76 2.24-5 5-5h226c2.76 0 5 2.24 5 5v95.33c0 2.76-2.24 5-5 5h-226c-2.76 0-5-2.24-5-5z" stroke="#000" stroke-width="2" fill="#fff"/><path d="M1416.67 578h236" stroke="#000" stroke-width="2" fill="none"/><use xlink:href="#u" transform="matrix(1,0,0,1,1424.6666666666667,540) translate(13.475000000000009 22.6)"/><use xlink:href="#c" transform="matrix(1,0,0,1,1428.6666666666667,585.6) translate(0 14.4)"/><use xlink:href="#v" transform="matrix(1,0,0,1,1428.6666666666667,585.6) translate(0 36)"/><path d="M1859.33 374.33c0-2.76 2.24-5 5-5h226c2.76 0 5 2.24 5 5v91.34c0 2.76-2.24 5-5 5h-226c-2.76 0-5-2.24-5-5z" stroke="#000" stroke-width="2" fill="#fff"/><path d="M1859.33 407h236" stroke="#000" stroke-width="2" fill="none"/><use xlink:href="#w" transform="matrix(1,0,0,1,1867.333333333333,369.33333333333314) translate(27.89999999999999 22.6)"/><use xlink:href="#x" transform="matrix(1,0,0,1,1871.333333333333,414.93333333333317) translate(0 14.4)"/><use xlink:href="#y" transform="matrix(1,0,0,1,1871.333333333333,414.93333333333317) translate(0 36)"/><path d="M1416.67 346.33c0-2.76 2.24-5 5-5h226c2.76 0 5 2.24 5 5v119.6c0 2.76-2.24 5-5 5h-226c-2.76 0-5-2.24-5-5z" stroke="#000" stroke-width="2" fill="#fff"/><path d="M1416.67 379h236" stroke="#000" stroke-width="2" fill="none"/><use xlink:href="#z" transform="matrix(1,0,0,1,1424.6666666666674,341.33333333333337) translate(37.17499999999998 22.6)"/><use xlink:href="#A" transform="matrix(1,0,0,1,1428.6666666666674,386.9333333333334) translate(0 14.4)"/><use xlink:href="#B" transform="matrix(1,0,0,1,1428.6666666666674,386.9333333333334) translate(0 36)"/><use xlink:href="#C" transform="matrix(1,0,0,1,1428.6666666666674,386.9333333333334) translate(0 57.6)"/><use xlink:href="#D" transform="matrix(1,0,0,1,1428.6666666666674,386.9333333333334) translate(0 79.20000000000002)"/><path d="M1860.67 266.33c0-2.76 2.24-5 5-5h224.66c2.76 0 5 2.24 5 5v32.94c0 2.76-2.24 5-5 5h-224.66c-2.76 0-5-2.24-5-5z" stroke="#000" stroke-width="2" fill="#fff"/><use xlink:href="#E" transform="matrix(1,0,0,1,1868.6666666666663,269.3333333333336) translate(50.17499999999999 17.1)"/><path d="M1653.67 416.27h186.43" stroke="#000" stroke-width="2" fill="none"/><path d="M1653.67 417.27h-1v-2h1zM1855.1 416.27l-14.27 4.64v-9.26z"/><path d="M1858.33 416.27l-18.5 6v-12zm-16.5 3.26l10.03-3.26-10.03-3.26z"/><use xlink:href="#F" transform="matrix(1,0,0,1,1655.3716587753258,420.27228915662636) translate(0 14.4)"/><path d="M1534.67 471.93v48.83" stroke="#000" stroke-width="2" fill="none"/><path d="M1535.67 471.93h-2v-1h2zM1534.67 535.76l-4.64-14.26h9.27z"/><path d="M1534.67 539l-6.02-18.5h12.03zm-3.26-16.5l3.27 10.03 3.26-10.03z"/><use xlink:href="#G" transform="matrix(1,0,0,1,1542.6666666666672,477.2) translate(0 14.4)"/><path d="M1859.33 627.67c0-2.76 2.24-5 5-5h226c2.76 0 5 2.24 5 5v96.66c0 2.76-2.24 5-5 5h-226c-2.76 0-5-2.24-5-5z" stroke="#000" stroke-width="2" fill="#fff"/><path d="M1859.33 660h236" stroke="#000" stroke-width="2" fill="none"/><use xlink:href="#H" transform="matrix(1,0,0,1,1867.3333333333335,622.6666666666661) translate(48.17499999999999 22.6)"/><use xlink:href="#c" transform="matrix(1,0,0,1,1871.3333333333335,668.2666666666661) translate(0 14.4)"/><use xlink:href="#f" transform="matrix(1,0,0,1,1871.3333333333335,668.2666666666661) translate(0 36)"/><path d="M2009.56 730.33v19.34c0 2.76 2.24 5 5 5h135.77c2.76 0 5-2.24 5-5v-27.74c0-2.76-2.24-5-5-5h-35.76" stroke="#000" stroke-width="2" fill="none"/><path d="M2010.56 730.33h-2v-1h2zM2113.84 721.57l-14.27-4.64 14.27-4.64z"/><path d="M2114.84 722.94l-18.5-6 18.5-6.02zm-12.03-6l10.04 3.25v-6.53z"/><use xlink:href="#I" transform="matrix(1,0,0,1,2032.990792818129,758.6666666666666) translate(0 14.4)"/><use xlink:href="#J" transform="matrix(1,0,0,1,2032.990792818129,758.6666666666666) translate(0 36)"/><path d="M1977.33 621.67V489.9" stroke="#000" stroke-width="2" fill="none"/><path d="M1978.33 622.67h-2v-1h2zM1981.97 489.17h-9.27l4.63-14.27z"/><path d="M1983.35 490.17h-12.03l6-18.5zm-9.28-2h6.52l-3.27-10.03z"/><use xlink:href="#K" transform="matrix(1,0,0,1,1985.3333333333335,599.8306306226765) translate(0 14.4)"/><path d="M2004.9 471.67v20.66c0 2.76 2.22 5 5 5h140.43c2.76 0 5-2.24 5-5V457c0-2.76-2.24-5-5-5h-35.76" stroke="#000" stroke-width="2" fill="none"/><path d="M2005.9 471.67h-2v-1h2zM2113.84 456.64l-14.27-4.64 14.27-4.64z"/><path d="M2114.84 458l-18.5-6 18.5-6zm-12.03-6l10.04 3.26v-6.52z"/><g><use xlink:href="#L" transform="matrix(1,0,0,1,2016.5722321086382,501.33333333333326) translate(0 14.4)"/><use xlink:href="#M" transform="matrix(1,0,0,1,2016.5722321086382,501.33333333333326) translate(0 36)"/><use xlink:href="#N" transform="matrix(1,0,0,1,2016.5722321086382,501.33333333333326) translate(0 57.6)"/></g><path d="M1978 329.23v7.24c0 .18-.15.33-.33.33-.2 0-.34.15-.34.33v31.2" stroke="#000" stroke-width="2" fill="none"/><path d="M1990.73 328.75h-25.46l12.73-21.52z" fill="#fff"/><path d="M1992.48 329.75h-28.96l14.48-24.48zm-25.45-2h21.94L1978 309.2zM1978.33 369.33h-2v-1h2z"/><path d="M396 345v129.33c0 2.76 2.24 5 5 5h151.1" stroke="#000" stroke-width="2" fill="none"/><path d="M397 345h-2v-1h2zM567.1 479.33l-14.27 4.64v-9.27z"/><path d="M570.33 479.33l-18.5 6.02v-12.03zm-16.5 3.26l10.03-3.27-10.03-3.26z"/><g><use xlink:href="#O" transform="matrix(1,0,0,1,403.99999999999994,346.2968148512783) translate(0 14.4)"/></g><path d="M278 266.33c0-2.76 2.24-5 5-5h226c2.76 0 5 2.24 5 5V339c0 2.76-2.24 5-5 5H283c-2.76 0-5-2.24-5-5z" stroke="#000" stroke-width="2" fill="#fff"/><path d="M278 299h236" stroke="#000" stroke-width="2" fill="none"/><g><use xlink:href="#P" transform="matrix(1,0,0,1,285.99999999999994,261.3333333333333) translate(55.67499999999999 22.6)"/></g><g><use xlink:href="#Q" transform="matrix(1,0,0,1,289.99999999999994,306.93333333333334) translate(0 14.4)"/></g><defs><path d="M25 0v-261h50V0H25" id="R"/><path d="M110-194c64 0 96 36 96 99 0 64-35 99-97 99-61 0-95-36-95-99 0-62 34-99 96-99zm-1 164c35 0 45-28 45-65 0-40-10-65-43-65-34 0-45 26-45 65 0 36 10 65 43 65" id="S"/><path d="M195-6C206 82 75 100 31 46c-4-6-6-13-8-21l49-6c3 16 16 24 34 25 40 0 42-37 40-79-11 22-30 35-61 35-53 0-70-43-70-97 0-56 18-96 73-97 30 0 46 14 59 34l2-30h47zm-90-29c32 0 41-27 41-63 0-35-9-62-40-62-32 0-39 29-40 63 0 36 9 62 39 62" id="T"/><path d="M137-138c1-29-70-34-71-4 15 46 118 7 119 86 1 83-164 76-172 9l43-7c4 19 20 25 44 25 33 8 57-30 24-41C81-84 22-81 20-136c-2-80 154-74 161-7" id="U"/><path d="M185-48c-13 30-37 53-82 52C43 2 14-33 14-96s30-98 90-98c62 0 83 45 84 108H66c0 31 8 55 39 56 18 0 30-7 34-22zm-45-69c5-46-57-63-70-21-2 6-4 13-4 21h74" id="V"/><path d="M115-3C79 11 28 4 28-45v-112H4v-33h27l15-45h31v45h36v33H77v99c-1 23 16 31 38 25v30" id="W"/><path d="M35-132v-50h50v50H35zM35 0v-49h50V0H35" id="X"/><path d="M24 0v-248h52v208h133V0H24" id="Y"/><path d="M169-182c-1-43-94-46-97-3 18 66 151 10 154 114 3 95-165 93-204 36-6-8-10-19-12-30l50-8c3 46 112 56 116 5-17-69-150-10-154-114-4-87 153-88 188-35 5 8 8 18 10 28" id="Z"/><g id="a"><use transform="matrix(0.05,0,0,0.05,0,0)" xlink:href="#R"/><use transform="matrix(0.05,0,0,0.05,5,0)" xlink:href="#S"/><use transform="matrix(0.05,0,0,0.05,15.950000000000001,0)" xlink:href="#T"/><use transform="matrix(0.05,0,0,0.05,26.900000000000002,0)" xlink:href="#U"/><use transform="matrix(0.05,0,0,0.05,36.900000000000006,0)" xlink:href="#V"/><use transform="matrix(0.05,0,0,0.05,46.900000000000006,0)" xlink:href="#W"/><use transform="matrix(0.05,0,0,0.05,52.85,0)" xlink:href="#X"/><use transform="matrix(0.05,0,0,0.05,58.80000000000001,0)" xlink:href="#Y"/><use transform="matrix(0.05,0,0,0.05,69.75000000000001,0)" xlink:href="#S"/><use transform="matrix(0.05,0,0,0.05,80.70000000000002,0)" xlink:href="#T"/><use transform="matrix(0.05,0,0,0.05,91.65000000000002,0)" xlink:href="#Z"/><use transform="matrix(0.05,0,0,0.05,103.65000000000003,0)" xlink:href="#V"/><use transform="matrix(0.05,0,0,0.05,113.65000000000003,0)" xlink:href="#W"/></g><path d="M85-194c31 0 48 13 60 33l-1-100h32l1 261h-30c-2-10 0-23-3-31C134-8 116 4 85 4 32 4 16-35 15-94c0-66 23-100 70-100zm9 24c-40 0-46 34-46 75 0 40 6 74 45 74 42 0 51-32 51-76 0-42-9-74-50-73" id="aa"/><path d="M96-169c-40 0-48 33-48 73s9 75 48 75c24 0 41-14 43-38l32 2c-6 37-31 61-74 61-59 0-76-41-82-99-10-93 101-131 147-64 4 7 5 14 7 22l-32 3c-4-21-16-35-41-35" id="ab"/><path d="M59-47c-2 24 18 29 38 22v24C64 9 27 4 27-40v-127H5v-23h24l9-43h21v43h35v23H59v120" id="ac"/><path d="M33-154v-36h34v36H33zM33 0v-36h34V0H33" id="ad"/><path d="M24-231v-30h32v30H24zM24 0v-190h32V0H24" id="ae"/><path d="M24 0v-261h32V0H24" id="af"/><path d="M100-194c63 0 86 42 84 106H49c0 40 14 67 53 68 26 1 43-12 49-29l28 8c-11 28-37 45-77 45C44 4 14-33 15-96c1-61 26-98 85-98zm52 81c6-60-76-77-97-28-3 7-6 17-6 28h103" id="ag"/><g id="b"><use transform="matrix(0.05,0,0,0.05,0,0)" xlink:href="#aa"/><use transform="matrix(0.05,0,0,0.05,10,0)" xlink:href="#ab"/><use transform="matrix(0.05,0,0,0.05,19,0)" xlink:href="#ac"/><use transform="matrix(0.05,0,0,0.05,24,0)" xlink:href="#ad"/><use transform="matrix(0.05,0,0,0.05,29,0)" xlink:href="#ac"/><use transform="matrix(0.05,0,0,0.05,34,0)" xlink:href="#ae"/><use transform="matrix(0.05,0,0,0.05,37.95,0)" xlink:href="#ac"/><use transform="matrix(0.05,0,0,0.05,42.95,0)" xlink:href="#af"/><use transform="matrix(0.05,0,0,0.05,46.900000000000006,0)" xlink:href="#ag"/></g><path d="M135-143c-3-34-86-38-87 0 15 53 115 12 119 90S17 21 10-45l28-5c4 36 97 45 98 0-10-56-113-15-118-90-4-57 82-63 122-42 12 7 21 19 24 35" id="ah"/><path d="M114-163C36-179 61-72 57 0H25l-1-190h30c1 12-1 29 2 39 6-27 23-49 58-41v29" id="ai"/><path d="M115-194c55 1 70 41 70 98S169 2 115 4C84 4 66-9 55-30l1 105H24l-1-265h31l2 30c10-21 28-34 59-34zm-8 174c40 0 45-34 45-75s-6-73-45-74c-42 0-51 32-51 76 0 43 10 73 51 73" id="aj"/><path d="M100-194c62-1 85 37 85 99 1 63-27 99-86 99S16-35 15-95c0-66 28-99 85-99zM99-20c44 1 53-31 53-75 0-43-8-75-51-75s-53 32-53 75 10 74 51 75" id="ak"/><path d="M117-194c89-4 53 116 60 194h-32v-121c0-31-8-49-39-48C34-167 62-67 57 0H25l-1-190h30c1 10-1 24 2 32 11-22 29-35 61-36" id="al"/><g id="c"><use transform="matrix(0.05,0,0,0.05,0,0)" xlink:href="#aa"/><use transform="matrix(0.05,0,0,0.05,10,0)" xlink:href="#ab"/><use transform="matrix(0.05,0,0,0.05,19,0)" xlink:href="#ac"/><use transform="matrix(0.05,0,0,0.05,24,0)" xlink:href="#ad"/><use transform="matrix(0.05,0,0,0.05,29,0)" xlink:href="#aa"/><use transform="matrix(0.05,0,0,0.05,39,0)" xlink:href="#ag"/><use transform="matrix(0.05,0,0,0.05,49,0)" xlink:href="#ah"/><use transform="matrix(0.05,0,0,0.05,58,0)" xlink:href="#ab"/><use transform="matrix(0.05,0,0,0.05,67,0)" xlink:href="#ai"/><use transform="matrix(0.05,0,0,0.05,72.95,0)" xlink:href="#ae"/><use transform="matrix(0.05,0,0,0.05,76.9,0)" xlink:href="#aj"/><use transform="matrix(0.05,0,0,0.05,86.9,0)" xlink:href="#ac"/><use transform="matrix(0.05,0,0,0.05,91.9,0)" xlink:href="#ae"/><use transform="matrix(0.05,0,0,0.05,95.85000000000001,0)" xlink:href="#ak"/><use transform="matrix(0.05,0,0,0.05,105.85000000000001,0)" xlink:href="#al"/></g><path d="M84 4C-5 8 30-112 23-190h32v120c0 31 7 50 39 49 72-2 45-101 50-169h31l1 190h-30c-1-10 1-25-2-33-11 22-28 36-60 37" id="am"/><path d="M115-194c53 0 69 39 70 98 0 66-23 100-70 100C84 3 66-7 56-30L54 0H23l1-261h32v101c10-23 28-34 59-34zm-8 174c40 0 45-34 45-75 0-40-5-75-45-74-42 0-51 32-51 76 0 43 10 73 51 73" id="an"/><path d="M106-169C34-169 62-67 57 0H25v-261h32l-1 103c12-21 28-36 61-36 89 0 53 116 60 194h-32v-121c2-32-8-49-39-48" id="ao"/><g id="d"><use transform="matrix(0.05,0,0,0.05,0,0)" xlink:href="#aa"/><use transform="matrix(0.05,0,0,0.05,10,0)" xlink:href="#ab"/><use transform="matrix(0.05,0,0,0.05,19,0)" xlink:href="#ac"/><use transform="matrix(0.05,0,0,0.05,24,0)" xlink:href="#ad"/><use transform="matrix(0.05,0,0,0.05,29,0)" xlink:href="#aj"/><use transform="matrix(0.05,0,0,0.05,39,0)" xlink:href="#am"/><use transform="matrix(0.05,0,0,0.05,49,0)" xlink:href="#an"/><use transform="matrix(0.05,0,0,0.05,59,0)" xlink:href="#af"/><use transform="matrix(0.05,0,0,0.05,62.95,0)" xlink:href="#ae"/><use transform="matrix(0.05,0,0,0.05,66.9,0)" xlink:href="#ah"/><use transform="matrix(0.05,0,0,0.05,75.9,0)" xlink:href="#ao"/><use transform="matrix(0.05,0,0,0.05,85.9,0)" xlink:href="#ag"/><use transform="matrix(0.05,0,0,0.05,95.9,0)" xlink:href="#ai"/></g><path d="M141-36C126-15 110 5 73 4 37 3 15-17 15-53c-1-64 63-63 125-63 3-35-9-54-41-54-24 1-41 7-42 31l-33-3c5-37 33-52 76-52 45 0 72 20 72 64v82c-1 20 7 32 28 27v20c-31 9-61-2-59-35zM48-53c0 20 12 33 32 33 41-3 63-29 60-74-43 2-92-5-92 41" id="ap"/><path d="M30-248c87 1 191-15 191 75 0 78-77 80-158 76V0H30v-248zm33 125c57 0 124 11 124-50 0-59-68-47-124-48v98" id="aq"/><g id="e"><use transform="matrix(0.05,0,0,0.05,0,0)" xlink:href="#aa"/><use transform="matrix(0.05,0,0,0.05,10,0)" xlink:href="#ab"/><use transform="matrix(0.05,0,0,0.05,19,0)" xlink:href="#ap"/><use transform="matrix(0.05,0,0,0.05,29,0)" xlink:href="#ac"/><use transform="matrix(0.05,0,0,0.05,34,0)" xlink:href="#ad"/><use transform="matrix(0.05,0,0,0.05,39,0)" xlink:href="#ab"/><use transform="matrix(0.05,0,0,0.05,48,0)" xlink:href="#ak"/><use transform="matrix(0.05,0,0,0.05,58,0)" xlink:href="#al"/><use transform="matrix(0.05,0,0,0.05,68,0)" xlink:href="#ac"/><use transform="matrix(0.05,0,0,0.05,73,0)" xlink:href="#ap"/><use transform="matrix(0.05,0,0,0.05,83,0)" xlink:href="#ab"/><use transform="matrix(0.05,0,0,0.05,92,0)" xlink:href="#ac"/><use transform="matrix(0.05,0,0,0.05,97,0)" xlink:href="#aq"/><use transform="matrix(0.05,0,0,0.05,109,0)" xlink:href="#ak"/><use transform="matrix(0.05,0,0,0.05,119,0)" xlink:href="#ae"/><use transform="matrix(0.05,0,0,0.05,122.95,0)" xlink:href="#al"/><use transform="matrix(0.05,0,0,0.05,132.95,0)" xlink:href="#ac"/></g><path d="M177-190C167-65 218 103 67 71c-23-6-38-20-44-43l32-5c15 47 100 32 89-28v-30C133-14 115 1 83 1 29 1 15-40 15-95c0-56 16-97 71-98 29-1 48 16 59 35 1-10 0-23 2-32h30zM94-22c36 0 50-32 50-73 0-42-14-75-50-75-39 0-46 34-46 75s6 73 46 73" id="ar"/><g id="f"><use transform="matrix(0.05,0,0,0.05,0,0)" xlink:href="#aa"/><use transform="matrix(0.05,0,0,0.05,10,0)" xlink:href="#ab"/><use transform="matrix(0.05,0,0,0.05,19,0)" xlink:href="#ap"/><use transform="matrix(0.05,0,0,0.05,29,0)" xlink:href="#ac"/><use transform="matrix(0.05,0,0,0.05,34,0)" xlink:href="#ad"/><use transform="matrix(0.05,0,0,0.05,39,0)" xlink:href="#af"/><use transform="matrix(0.05,0,0,0.05,42.95,0)" xlink:href="#ap"/><use transform="matrix(0.05,0,0,0.05,52.95,0)" xlink:href="#al"/><use transform="matrix(0.05,0,0,0.05,62.95,0)" xlink:href="#aa"/><use transform="matrix(0.05,0,0,0.05,72.95,0)" xlink:href="#ae"/><use transform="matrix(0.05,0,0,0.05,76.9,0)" xlink:href="#al"/><use transform="matrix(0.05,0,0,0.05,86.9,0)" xlink:href="#ar"/><use transform="matrix(0.05,0,0,0.05,96.9,0)" xlink:href="#aq"/><use transform="matrix(0.05,0,0,0.05,108.9,0)" xlink:href="#ap"/><use transform="matrix(0.05,0,0,0.05,118.9,0)" xlink:href="#ar"/><use transform="matrix(0.05,0,0,0.05,128.9,0)" xlink:href="#ag"/></g><path d="M67-125c0 53 21 87 73 88 37 1 54-22 65-47l45 17C233-25 199 4 140 4 58 4 20-42 15-125 8-235 124-281 211-232c18 10 29 29 36 50l-46 12c-8-25-30-41-62-41-52 0-71 34-72 86" id="as"/><path d="M135-194c87-1 58 113 63 194h-50c-7-57 23-157-34-157-59 0-34 97-39 157H25l-1-190h47c2 12-1 28 3 38 12-26 28-41 61-42" id="at"/><path d="M190-63c-7 42-38 67-86 67-59 0-84-38-90-98-12-110 154-137 174-36l-49 2c-2-19-15-32-35-32-30 0-35 28-38 64-6 74 65 87 74 30" id="au"/><path d="M135-150c-39-12-60 13-60 57V0H25l-1-190h47c2 13-1 29 3 40 6-28 27-53 61-41v41" id="av"/><g id="g"><use transform="matrix(0.05,0,0,0.05,0,0)" xlink:href="#R"/><use transform="matrix(0.05,0,0,0.05,5,0)" xlink:href="#S"/><use transform="matrix(0.05,0,0,0.05,15.950000000000001,0)" xlink:href="#T"/><use transform="matrix(0.05,0,0,0.05,26.900000000000002,0)" xlink:href="#U"/><use transform="matrix(0.05,0,0,0.05,36.900000000000006,0)" xlink:href="#V"/><use transform="matrix(0.05,0,0,0.05,46.900000000000006,0)" xlink:href="#W"/><use transform="matrix(0.05,0,0,0.05,52.85,0)" xlink:href="#X"/><use transform="matrix(0.05,0,0,0.05,58.80000000000001,0)" xlink:href="#as"/><use transform="matrix(0.05,0,0,0.05,71.75000000000001,0)" xlink:href="#S"/><use transform="matrix(0.05,0,0,0.05,82.70000000000002,0)" xlink:href="#at"/><use transform="matrix(0.05,0,0,0.05,93.65000000000002,0)" xlink:href="#au"/><use transform="matrix(0.05,0,0,0.05,103.65000000000003,0)" xlink:href="#av"/><use transform="matrix(0.05,0,0,0.05,110.65000000000003,0)" xlink:href="#V"/><use transform="matrix(0.05,0,0,0.05,120.65000000000003,0)" xlink:href="#W"/><use transform="matrix(0.05,0,0,0.05,126.60000000000002,0)" xlink:href="#V"/><use transform="matrix(0.05,0,0,0.05,136.60000000000002,0)" xlink:href="#Y"/><use transform="matrix(0.05,0,0,0.05,147.55,0)" xlink:href="#S"/><use transform="matrix(0.05,0,0,0.05,158.5,0)" xlink:href="#T"/></g><path d="M210-169c-67 3-38 105-44 169h-31v-121c0-29-5-50-35-48C34-165 62-65 56 0H25l-1-190h30c1 10-1 24 2 32 10-44 99-50 107 0 11-21 27-35 58-36 85-2 47 119 55 194h-31v-121c0-29-5-49-35-48" id="aw"/><g id="h"><use transform="matrix(0.05,0,0,0.05,0,0)" xlink:href="#aa"/><use transform="matrix(0.05,0,0,0.05,10,0)" xlink:href="#ab"/><use transform="matrix(0.05,0,0,0.05,19,0)" xlink:href="#ac"/><use transform="matrix(0.05,0,0,0.05,24,0)" xlink:href="#ad"/><use transform="matrix(0.05,0,0,0.05,29,0)" xlink:href="#ac"/><use transform="matrix(0.05,0,0,0.05,34,0)" xlink:href="#ag"/><use transform="matrix(0.05,0,0,0.05,44,0)" xlink:href="#aw"/><use transform="matrix(0.05,0,0,0.05,58.95,0)" xlink:href="#aj"/><use transform="matrix(0.05,0,0,0.05,68.95,0)" xlink:href="#ak"/><use transform="matrix(0.05,0,0,0.05,78.95,0)" xlink:href="#ai"/><use transform="matrix(0.05,0,0,0.05,84.9,0)" xlink:href="#ap"/><use transform="matrix(0.05,0,0,0.05,94.9,0)" xlink:href="#af"/></g><path d="M232-93c-1 65-40 97-104 97C67 4 28-28 28-90v-158h33c8 89-33 224 67 224 102 0 64-133 71-224h33v155" id="ax"/><path d="M233-177c-1 41-23 64-60 70L243 0h-38l-65-103H63V0H30v-248c88 3 205-21 203 71zM63-129c60-2 137 13 137-47 0-61-80-42-137-45v92" id="ay"/><path d="M30 0v-248h33v221h125V0H30" id="az"/><g id="i"><use transform="matrix(0.05,0,0,0.05,0,0)" xlink:href="#aa"/><use transform="matrix(0.05,0,0,0.05,10,0)" xlink:href="#ab"/><use transform="matrix(0.05,0,0,0.05,19,0)" xlink:href="#ap"/><use transform="matrix(0.05,0,0,0.05,29,0)" xlink:href="#ac"/><use transform="matrix(0.05,0,0,0.05,34,0)" xlink:href="#ad"/><use transform="matrix(0.05,0,0,0.05,39,0)" xlink:href="#ap"/><use transform="matrix(0.05,0,0,0.05,49,0)" xlink:href="#ab"/><use transform="matrix(0.05,0,0,0.05,58,0)" xlink:href="#ab"/><use transform="matrix(0.05,0,0,0.05,67,0)" xlink:href="#ag"/><use transform="matrix(0.05,0,0,0.05,77,0)" xlink:href="#ah"/><use transform="matrix(0.05,0,0,0.05,86,0)" xlink:href="#ah"/><use transform="matrix(0.05,0,0,0.05,95,0)" xlink:href="#ax"/><use transform="matrix(0.05,0,0,0.05,107.95,0)" xlink:href="#ay"/><use transform="matrix(0.05,0,0,0.05,120.9,0)" xlink:href="#az"/></g><path d="M206 0h-36l-40-164L89 0H53L-1-190h32L70-26l43-164h34l41 164 42-164h31" id="aA"/><g id="j"><use transform="matrix(0.05,0,0,0.05,0,0)" xlink:href="#aa"/><use transform="matrix(0.05,0,0,0.05,10,0)" xlink:href="#ab"/><use transform="matrix(0.05,0,0,0.05,19,0)" xlink:href="#ap"/><use transform="matrix(0.05,0,0,0.05,29,0)" xlink:href="#ac"/><use transform="matrix(0.05,0,0,0.05,34,0)" xlink:href="#ad"/><use transform="matrix(0.05,0,0,0.05,39,0)" xlink:href="#aa"/><use transform="matrix(0.05,0,0,0.05,49,0)" xlink:href="#ak"/><use transform="matrix(0.05,0,0,0.05,59,0)" xlink:href="#aA"/><use transform="matrix(0.05,0,0,0.05,71.95,0)" xlink:href="#al"/><use transform="matrix(0.05,0,0,0.05,81.95,0)" xlink:href="#af"/><use transform="matrix(0.05,0,0,0.05,85.9,0)" xlink:href="#ak"/><use transform="matrix(0.05,0,0,0.05,95.9,0)" xlink:href="#ap"/><use transform="matrix(0.05,0,0,0.05,105.9,0)" xlink:href="#aa"/><use transform="matrix(0.05,0,0,0.05,115.9,0)" xlink:href="#ax"/><use transform="matrix(0.05,0,0,0.05,128.85,0)" xlink:href="#ay"/><use transform="matrix(0.05,0,0,0.05,141.79999999999998,0)" xlink:href="#az"/></g><g id="k"><use transform="matrix(0.05,0,0,0.05,0,0)" xlink:href="#aa"/><use transform="matrix(0.05,0,0,0.05,10,0)" xlink:href="#ab"/><use transform="matrix(0.05,0,0,0.05,19,0)" xlink:href="#ap"/><use transform="matrix(0.05,0,0,0.05,29,0)" xlink:href="#ac"/><use transform="matrix(0.05,0,0,0.05,34,0)" xlink:href="#ad"/><use transform="matrix(0.05,0,0,0.05,39,0)" xlink:href="#ac"/><use transform="matrix(0.05,0,0,0.05,44,0)" xlink:href="#ag"/><use transform="matrix(0.05,0,0,0.05,54,0)" xlink:href="#aw"/><use transform="matrix(0.05,0,0,0.05,68.95,0)" xlink:href="#aj"/><use transform="matrix(0.05,0,0,0.05,78.95,0)" xlink:href="#ak"/><use transform="matrix(0.05,0,0,0.05,88.95,0)" xlink:href="#ai"/><use transform="matrix(0.05,0,0,0.05,94.9,0)" xlink:href="#ap"/><use transform="matrix(0.05,0,0,0.05,104.9,0)" xlink:href="#af"/></g><path d="M179-190L93 31C79 59 56 82 12 73V49c39 6 53-20 64-50L1-190h34L92-34l54-156h33" id="aB"/><path d="M185-189c-5-48-123-54-124 2 14 75 158 14 163 119 3 78-121 87-175 55-17-10-28-26-33-46l33-7c5 56 141 63 141-1 0-78-155-14-162-118-5-82 145-84 179-34 5 7 8 16 11 25" id="aC"/><path d="M9 0v-24l116-142H16v-24h144v24L44-24h123V0H9" id="aD"/><g id="l"><use transform="matrix(0.05,0,0,0.05,0,0)" xlink:href="#aa"/><use transform="matrix(0.05,0,0,0.05,10,0)" xlink:href="#ab"/><use transform="matrix(0.05,0,0,0.05,19,0)" xlink:href="#ap"/><use transform="matrix(0.05,0,0,0.05,29,0)" xlink:href="#ac"/><use transform="matrix(0.05,0,0,0.05,34,0)" xlink:href="#ad"/><use transform="matrix(0.05,0,0,0.05,39,0)" xlink:href="#an"/><use transform="matrix(0.05,0,0,0.05,49,0)" xlink:href="#aB"/><use transform="matrix(0.05,0,0,0.05,58,0)" xlink:href="#ac"/><use transform="matrix(0.05,0,0,0.05,63,0)" xlink:href="#ag"/><use transform="matrix(0.05,0,0,0.05,73,0)" xlink:href="#aC"/><use transform="matrix(0.05,0,0,0.05,85,0)" xlink:href="#ae"/><use transform="matrix(0.05,0,0,0.05,88.95,0)" xlink:href="#aD"/><use transform="matrix(0.05,0,0,0.05,97.95,0)" xlink:href="#ag"/></g><path d="M212-179c-10-28-35-45-73-45-59 0-87 40-87 99 0 60 29 101 89 101 43 0 62-24 78-52l27 14C228-24 195 4 139 4 59 4 22-46 18-125c-6-104 99-153 187-111 19 9 31 26 39 46" id="aE"/><g id="m"><use transform="matrix(0.05,0,0,0.05,0,0)" xlink:href="#af"/><use transform="matrix(0.05,0,0,0.05,3.95,0)" xlink:href="#ak"/><use transform="matrix(0.05,0,0,0.05,13.949999999999998,0)" xlink:href="#ar"/><use transform="matrix(0.05,0,0,0.05,23.95,0)" xlink:href="#ah"/><use transform="matrix(0.05,0,0,0.05,32.95,0)" xlink:href="#ag"/><use transform="matrix(0.05,0,0,0.05,42.95,0)" xlink:href="#ac"/><use transform="matrix(0.05,0,0,0.05,47.95,0)" xlink:href="#ad"/><use transform="matrix(0.05,0,0,0.05,52.95,0)" xlink:href="#ai"/><use transform="matrix(0.05,0,0,0.05,58.900000000000006,0)" xlink:href="#ag"/><use transform="matrix(0.05,0,0,0.05,68.9,0)" xlink:href="#ab"/><use transform="matrix(0.05,0,0,0.05,77.9,0)" xlink:href="#ak"/><use transform="matrix(0.05,0,0,0.05,87.9,0)" xlink:href="#ai"/><use transform="matrix(0.05,0,0,0.05,93.85000000000001,0)" xlink:href="#aa"/><use transform="matrix(0.05,0,0,0.05,103.85000000000001,0)" xlink:href="#aE"/><use transform="matrix(0.05,0,0,0.05,116.80000000000001,0)" xlink:href="#ak"/><use transform="matrix(0.05,0,0,0.05,126.80000000000001,0)" xlink:href="#am"/><use transform="matrix(0.05,0,0,0.05,136.8,0)" xlink:href="#al"/><use transform="matrix(0.05,0,0,0.05,146.8,0)" xlink:href="#ac"/></g><g id="n"><use transform="matrix(0.05,0,0,0.05,0,0)" xlink:href="#af"/><use transform="matrix(0.05,0,0,0.05,3.95,0)" xlink:href="#ak"/><use transform="matrix(0.05,0,0,0.05,13.949999999999998,0)" xlink:href="#ar"/><use transform="matrix(0.05,0,0,0.05,23.95,0)" xlink:href="#ah"/><use transform="matrix(0.05,0,0,0.05,32.95,0)" xlink:href="#ag"/><use transform="matrix(0.05,0,0,0.05,42.95,0)" xlink:href="#ac"/><use transform="matrix(0.05,0,0,0.05,47.95,0)" xlink:href="#ad"/><use transform="matrix(0.05,0,0,0.05,52.95,0)" xlink:href="#ag"/><use transform="matrix(0.05,0,0,0.05,62.95,0)" xlink:href="#ah"/><use transform="matrix(0.05,0,0,0.05,71.95,0)" xlink:href="#ac"/><use transform="matrix(0.05,0,0,0.05,76.95,0)" xlink:href="#ay"/><use transform="matrix(0.05,0,0,0.05,89.9,0)" xlink:href="#ag"/><use transform="matrix(0.05,0,0,0.05,99.9,0)" xlink:href="#ab"/><use transform="matrix(0.05,0,0,0.05,108.9,0)" xlink:href="#ak"/><use transform="matrix(0.05,0,0,0.05,118.9,0)" xlink:href="#ai"/><use transform="matrix(0.05,0,0,0.05,124.85000000000001,0)" xlink:href="#aa"/><use transform="matrix(0.05,0,0,0.05,134.85000000000002,0)" xlink:href="#aE"/><use transform="matrix(0.05,0,0,0.05,147.8,0)" xlink:href="#ak"/><use transform="matrix(0.05,0,0,0.05,157.8,0)" xlink:href="#am"/><use transform="matrix(0.05,0,0,0.05,167.8,0)" xlink:href="#al"/><use transform="matrix(0.05,0,0,0.05,177.8,0)" xlink:href="#ac"/></g><path d="M30-248c118-7 216 8 213 122C240-48 200 0 122 0H30v-248zM63-27c89 8 146-16 146-99s-60-101-146-95v194" id="aF"/><g id="o"><use transform="matrix(0.05,0,0,0.05,0,0)" xlink:href="#af"/><use transform="matrix(0.05,0,0,0.05,3.95,0)" xlink:href="#ak"/><use transform="matrix(0.05,0,0,0.05,13.949999999999998,0)" xlink:href="#ar"/><use transform="matrix(0.05,0,0,0.05,23.95,0)" xlink:href="#ah"/><use transform="matrix(0.05,0,0,0.05,32.95,0)" xlink:href="#ag"/><use transform="matrix(0.05,0,0,0.05,42.95,0)" xlink:href="#ac"/><use transform="matrix(0.05,0,0,0.05,47.95,0)" xlink:href="#ad"/><use transform="matrix(0.05,0,0,0.05,52.95,0)" xlink:href="#ag"/><use transform="matrix(0.05,0,0,0.05,62.95,0)" xlink:href="#ah"/><use transform="matrix(0.05,0,0,0.05,71.95,0)" xlink:href="#ac"/><use transform="matrix(0.05,0,0,0.05,76.95,0)" xlink:href="#ay"/><use transform="matrix(0.05,0,0,0.05,89.9,0)" xlink:href="#ag"/><use transform="matrix(0.05,0,0,0.05,99.9,0)" xlink:href="#ab"/><use transform="matrix(0.05,0,0,0.05,108.9,0)" xlink:href="#ak"/><use transform="matrix(0.05,0,0,0.05,118.9,0)" xlink:href="#ai"/><use transform="matrix(0.05,0,0,0.05,124.85000000000001,0)" xlink:href="#aa"/><use transform="matrix(0.05,0,0,0.05,134.85000000000002,0)" xlink:href="#ah"/><use transform="matrix(0.05,0,0,0.05,143.85000000000002,0)" xlink:href="#aq"/><use transform="matrix(0.05,0,0,0.05,155.85000000000002,0)" xlink:href="#ag"/><use transform="matrix(0.05,0,0,0.05,165.85000000000002,0)" xlink:href="#ai"/><use transform="matrix(0.05,0,0,0.05,171.8,0)" xlink:href="#aF"/><use transform="matrix(0.05,0,0,0.05,184.75,0)" xlink:href="#ap"/><use transform="matrix(0.05,0,0,0.05,194.75,0)" xlink:href="#aB"/></g><path d="M88-194c31-1 46 15 58 34l-1-101h50l1 261h-48c-2-10 0-23-3-31C134-8 116 4 84 4 32 4 16-41 15-95c0-56 19-97 73-99zm17 164c33 0 40-30 41-66 1-37-9-64-41-64s-38 30-39 65c0 43 13 65 39 65" id="aG"/><path d="M133-34C117-15 103 5 69 4 32 3 11-16 11-54c-1-60 55-63 116-61 1-26-3-47-28-47-18 1-26 9-28 27l-52-2c7-38 36-58 82-57s74 22 75 68l1 82c-1 14 12 18 25 15v27c-30 8-71 5-69-32zm-48 3c29 0 43-24 42-57-32 0-66-3-65 30 0 17 8 27 23 27" id="aH"/><path d="M24-248c120-7 223 5 221 122C244-46 201 0 124 0H24v-248zM76-40c74 7 117-18 117-86 0-67-45-88-117-82v168" id="aI"/><path d="M25-224v-37h50v37H25zM25 0v-190h50V0H25" id="aJ"/><path d="M135-194c52 0 70 43 70 98 0 56-19 99-73 100-30 1-46-15-58-35L72 0H24l1-261h50v104c11-23 29-37 60-37zM114-30c31 0 40-27 40-66 0-37-7-63-39-63s-41 28-41 65c0 36 8 64 40 64" id="aK"/><path d="M85 4C-2 5 27-109 22-190h50c7 57-23 150 33 157 60-5 35-97 40-157h50l1 190h-47c-2-12 1-28-3-38-12 25-28 42-61 42" id="aL"/><g id="p"><use transform="matrix(0.05,0,0,0.05,0,0)" xlink:href="#aG"/><use transform="matrix(0.05,0,0,0.05,10.950000000000001,0)" xlink:href="#au"/><use transform="matrix(0.05,0,0,0.05,20.950000000000003,0)" xlink:href="#aH"/><use transform="matrix(0.05,0,0,0.05,30.950000000000003,0)" xlink:href="#W"/><use transform="matrix(0.05,0,0,0.05,36.900000000000006,0)" xlink:href="#X"/><use transform="matrix(0.05,0,0,0.05,42.85000000000001,0)" xlink:href="#aI"/><use transform="matrix(0.05,0,0,0.05,55.80000000000001,0)" xlink:href="#aJ"/><use transform="matrix(0.05,0,0,0.05,60.80000000000001,0)" xlink:href="#U"/><use transform="matrix(0.05,0,0,0.05,70.80000000000001,0)" xlink:href="#W"/><use transform="matrix(0.05,0,0,0.05,76.75000000000001,0)" xlink:href="#av"/><use transform="matrix(0.05,0,0,0.05,83.75000000000001,0)" xlink:href="#aJ"/><use transform="matrix(0.05,0,0,0.05,88.75000000000001,0)" xlink:href="#aK"/><use transform="matrix(0.05,0,0,0.05,99.70000000000002,0)" xlink:href="#aL"/><use transform="matrix(0.05,0,0,0.05,110.65000000000003,0)" xlink:href="#W"/><use transform="matrix(0.05,0,0,0.05,116.60000000000002,0)" xlink:href="#aJ"/><use transform="matrix(0.05,0,0,0.05,121.60000000000002,0)" xlink:href="#S"/><use transform="matrix(0.05,0,0,0.05,132.55,0)" xlink:href="#at"/></g><g id="q"><use transform="matrix(0.05,0,0,0.05,0,0)" xlink:href="#aG"/><use transform="matrix(0.05,0,0,0.05,10.950000000000001,0)" xlink:href="#au"/><use transform="matrix(0.05,0,0,0.05,20.950000000000003,0)" xlink:href="#aH"/><use transform="matrix(0.05,0,0,0.05,30.950000000000003,0)" xlink:href="#W"/><use transform="matrix(0.05,0,0,0.05,36.900000000000006,0)" xlink:href="#X"/><use transform="matrix(0.05,0,0,0.05,42.85000000000001,0)" xlink:href="#aI"/><use transform="matrix(0.05,0,0,0.05,55.80000000000001,0)" xlink:href="#aH"/><use transform="matrix(0.05,0,0,0.05,65.80000000000001,0)" xlink:href="#W"/><use transform="matrix(0.05,0,0,0.05,71.75000000000001,0)" xlink:href="#aH"/><use transform="matrix(0.05,0,0,0.05,81.75000000000001,0)" xlink:href="#U"/><use transform="matrix(0.05,0,0,0.05,91.75000000000001,0)" xlink:href="#V"/><use transform="matrix(0.05,0,0,0.05,101.75000000000001,0)" xlink:href="#W"/></g><g id="r"><use transform="matrix(0.05,0,0,0.05,0,0)" xlink:href="#aa"/><use transform="matrix(0.05,0,0,0.05,10,0)" xlink:href="#ab"/><use transform="matrix(0.05,0,0,0.05,19,0)" xlink:href="#ap"/><use transform="matrix(0.05,0,0,0.05,29,0)" xlink:href="#ac"/><use transform="matrix(0.05,0,0,0.05,34,0)" xlink:href="#ad"/><use transform="matrix(0.05,0,0,0.05,39,0)" xlink:href="#aa"/><use transform="matrix(0.05,0,0,0.05,49,0)" xlink:href="#ae"/><use transform="matrix(0.05,0,0,0.05,52.95,0)" xlink:href="#ah"/><use transform="matrix(0.05,0,0,0.05,61.95,0)" xlink:href="#ac"/><use transform="matrix(0.05,0,0,0.05,66.95,0)" xlink:href="#ai"/><use transform="matrix(0.05,0,0,0.05,72.9,0)" xlink:href="#ae"/><use transform="matrix(0.05,0,0,0.05,76.85000000000001,0)" xlink:href="#an"/><use transform="matrix(0.05,0,0,0.05,86.85000000000001,0)" xlink:href="#am"/><use transform="matrix(0.05,0,0,0.05,96.85000000000001,0)" xlink:href="#ac"/><use transform="matrix(0.05,0,0,0.05,101.85000000000001,0)" xlink:href="#ae"/><use transform="matrix(0.05,0,0,0.05,105.80000000000001,0)" xlink:href="#ak"/><use transform="matrix(0.05,0,0,0.05,115.80000000000001,0)" xlink:href="#al"/></g><path d="M24-231v-30h32v30H24zM-9 49c24 4 33-6 33-30v-209h32V24c2 40-23 58-65 49V49" id="aM"/><g id="s"><use transform="matrix(0.05,0,0,0.05,0,0)" xlink:href="#af"/><use transform="matrix(0.05,0,0,0.05,3.95,0)" xlink:href="#ak"/><use transform="matrix(0.05,0,0,0.05,13.949999999999998,0)" xlink:href="#ar"/><use transform="matrix(0.05,0,0,0.05,23.95,0)" xlink:href="#ah"/><use transform="matrix(0.05,0,0,0.05,32.95,0)" xlink:href="#ag"/><use transform="matrix(0.05,0,0,0.05,42.95,0)" xlink:href="#ac"/><use transform="matrix(0.05,0,0,0.05,47.95,0)" xlink:href="#ad"/><use transform="matrix(0.05,0,0,0.05,52.95,0)" xlink:href="#ah"/><use transform="matrix(0.05,0,0,0.05,61.95,0)" xlink:href="#am"/><use transform="matrix(0.05,0,0,0.05,71.95,0)" xlink:href="#an"/><use transform="matrix(0.05,0,0,0.05,81.95,0)" xlink:href="#aM"/><use transform="matrix(0.05,0,0,0.05,85.9,0)" xlink:href="#ag"/><use transform="matrix(0.05,0,0,0.05,95.9,0)" xlink:href="#ab"/><use transform="matrix(0.05,0,0,0.05,104.9,0)" xlink:href="#ac"/></g><path d="M33 0v-248h34V0H33" id="aN"/><path d="M140-251c81 0 123 46 123 126C263-46 219 4 140 4 59 4 17-45 17-125s42-126 123-126zm0 227c63 0 89-41 89-101s-29-99-89-99c-61 0-89 39-89 99S79-25 140-24" id="aO"/><path d="M101-234c-31-9-42 10-38 44h38v23H63V0H32v-167H5v-23h27c-7-52 17-82 69-68v24" id="aP"/><g id="t"><use transform="matrix(0.05,0,0,0.05,0,0)" xlink:href="#af"/><use transform="matrix(0.05,0,0,0.05,3.95,0)" xlink:href="#ak"/><use transform="matrix(0.05,0,0,0.05,13.949999999999998,0)" xlink:href="#ar"/><use transform="matrix(0.05,0,0,0.05,23.95,0)" xlink:href="#ah"/><use transform="matrix(0.05,0,0,0.05,32.95,0)" xlink:href="#ag"/><use transform="matrix(0.05,0,0,0.05,42.95,0)" xlink:href="#ac"/><use transform="matrix(0.05,0,0,0.05,47.95,0)" xlink:href="#ad"/><use transform="matrix(0.05,0,0,0.05,52.95,0)" xlink:href="#ae"/><use transform="matrix(0.05,0,0,0.05,56.900000000000006,0)" xlink:href="#ah"/><use transform="matrix(0.05,0,0,0.05,65.9,0)" xlink:href="#aN"/><use transform="matrix(0.05,0,0,0.05,70.9,0)" xlink:href="#al"/><use transform="matrix(0.05,0,0,0.05,80.9,0)" xlink:href="#ah"/><use transform="matrix(0.05,0,0,0.05,89.9,0)" xlink:href="#ac"/><use transform="matrix(0.05,0,0,0.05,94.9,0)" xlink:href="#ap"/><use transform="matrix(0.05,0,0,0.05,104.9,0)" xlink:href="#al"/><use transform="matrix(0.05,0,0,0.05,114.9,0)" xlink:href="#ab"/><use transform="matrix(0.05,0,0,0.05,123.9,0)" xlink:href="#ag"/><use transform="matrix(0.05,0,0,0.05,133.9,0)" xlink:href="#aO"/><use transform="matrix(0.05,0,0,0.05,147.9,0)" xlink:href="#aP"/></g><path d="M76-208v77h127v40H76V0H24v-248h183v40H76" id="aQ"/><path d="M220-157c-53 9-28 100-34 157h-49v-107c1-27-5-49-29-50C55-147 81-57 75 0H25l-1-190h47c2 12-1 28 3 38 10-53 101-56 108 0 13-22 24-43 59-42 82 1 51 116 57 194h-49v-107c-1-25-5-48-29-50" id="aR"/><path d="M136-208V0H84v-208H4v-40h212v40h-80" id="aS"/><path d="M123 10C108 53 80 86 19 72V37c35 8 53-11 59-39L3-190h52l48 148c12-52 28-100 44-148h51" id="aT"/><path d="M135-194c53 0 70 44 70 98 0 56-19 98-73 100-31 1-45-17-59-34 3 33 2 69 2 105H25l-1-265h48c2 10 0 23 3 31 11-24 29-35 60-35zM114-30c33 0 39-31 40-66 0-38-9-64-40-64-56 0-55 130 0 130" id="aU"/><g id="u"><use transform="matrix(0.05,0,0,0.05,0,0)" xlink:href="#R"/><use transform="matrix(0.05,0,0,0.05,5,0)" xlink:href="#S"/><use transform="matrix(0.05,0,0,0.05,15.950000000000001,0)" xlink:href="#T"/><use transform="matrix(0.05,0,0,0.05,26.900000000000002,0)" xlink:href="#U"/><use transform="matrix(0.05,0,0,0.05,36.900000000000006,0)" xlink:href="#V"/><use transform="matrix(0.05,0,0,0.05,46.900000000000006,0)" xlink:href="#W"/><use transform="matrix(0.05,0,0,0.05,52.85,0)" xlink:href="#X"/><use transform="matrix(0.05,0,0,0.05,58.80000000000001,0)" xlink:href="#Y"/><use transform="matrix(0.05,0,0,0.05,69.75000000000001,0)" xlink:href="#S"/><use transform="matrix(0.05,0,0,0.05,80.70000000000002,0)" xlink:href="#T"/><use transform="matrix(0.05,0,0,0.05,91.65000000000002,0)" xlink:href="#aQ"/><use transform="matrix(0.05,0,0,0.05,102.60000000000002,0)" xlink:href="#S"/><use transform="matrix(0.05,0,0,0.05,113.55000000000003,0)" xlink:href="#av"/><use transform="matrix(0.05,0,0,0.05,120.55000000000003,0)" xlink:href="#aR"/><use transform="matrix(0.05,0,0,0.05,136.55,0)" xlink:href="#aH"/><use transform="matrix(0.05,0,0,0.05,146.55,0)" xlink:href="#W"/><use transform="matrix(0.05,0,0,0.05,152.5,0)" xlink:href="#aS"/><use transform="matrix(0.05,0,0,0.05,162.1,0)" xlink:href="#aT"/><use transform="matrix(0.05,0,0,0.05,172.1,0)" xlink:href="#aU"/><use transform="matrix(0.05,0,0,0.05,183.04999999999998,0)" xlink:href="#V"/></g><path d="M127-220V0H93v-220H8v-28h204v28h-85" id="aV"/><g id="v"><use transform="matrix(0.05,0,0,0.05,0,0)" xlink:href="#aa"/><use transform="matrix(0.05,0,0,0.05,10,0)" xlink:href="#ab"/><use transform="matrix(0.05,0,0,0.05,19,0)" xlink:href="#ap"/><use transform="matrix(0.05,0,0,0.05,29,0)" xlink:href="#ac"/><use transform="matrix(0.05,0,0,0.05,34,0)" xlink:href="#ad"/><use transform="matrix(0.05,0,0,0.05,39,0)" xlink:href="#aw"/><use transform="matrix(0.05,0,0,0.05,53.95,0)" xlink:href="#ag"/><use transform="matrix(0.05,0,0,0.05,63.95,0)" xlink:href="#aa"/><use transform="matrix(0.05,0,0,0.05,73.95,0)" xlink:href="#ae"/><use transform="matrix(0.05,0,0,0.05,77.9,0)" xlink:href="#ap"/><use transform="matrix(0.05,0,0,0.05,87.9,0)" xlink:href="#aV"/><use transform="matrix(0.05,0,0,0.05,97.85000000000001,0)" xlink:href="#aB"/><use transform="matrix(0.05,0,0,0.05,106.85000000000001,0)" xlink:href="#aj"/><use transform="matrix(0.05,0,0,0.05,116.85000000000001,0)" xlink:href="#ag"/></g><path d="M25-224v-37h50v37H25zM75 22c2 45-34 59-81 51V38c22 5 31-5 31-27v-201h50V22" id="aW"/><g id="w"><use transform="matrix(0.05,0,0,0.05,0,0)" xlink:href="#R"/><use transform="matrix(0.05,0,0,0.05,5,0)" xlink:href="#S"/><use transform="matrix(0.05,0,0,0.05,15.950000000000001,0)" xlink:href="#T"/><use transform="matrix(0.05,0,0,0.05,26.900000000000002,0)" xlink:href="#U"/><use transform="matrix(0.05,0,0,0.05,36.900000000000006,0)" xlink:href="#V"/><use transform="matrix(0.05,0,0,0.05,46.900000000000006,0)" xlink:href="#W"/><use transform="matrix(0.05,0,0,0.05,52.85,0)" xlink:href="#X"/><use transform="matrix(0.05,0,0,0.05,58.80000000000001,0)" xlink:href="#Z"/><use transform="matrix(0.05,0,0,0.05,70.80000000000001,0)" xlink:href="#aL"/><use transform="matrix(0.05,0,0,0.05,81.75000000000001,0)" xlink:href="#aK"/><use transform="matrix(0.05,0,0,0.05,92.70000000000002,0)" xlink:href="#aW"/><use transform="matrix(0.05,0,0,0.05,97.70000000000002,0)" xlink:href="#V"/><use transform="matrix(0.05,0,0,0.05,107.7,0)" xlink:href="#au"/><use transform="matrix(0.05,0,0,0.05,117.7,0)" xlink:href="#W"/><use transform="matrix(0.05,0,0,0.05,123.65000000000003,0)" xlink:href="#aS"/><use transform="matrix(0.05,0,0,0.05,133.25000000000003,0)" xlink:href="#aT"/><use transform="matrix(0.05,0,0,0.05,143.25000000000003,0)" xlink:href="#aU"/><use transform="matrix(0.05,0,0,0.05,154.20000000000002,0)" xlink:href="#V"/></g><path d="M143 0L79-87 56-68V0H24v-261h32v163l83-92h37l-77 82L181 0h-38" id="aX"/><g id="x"><use transform="matrix(0.05,0,0,0.05,0,0)" xlink:href="#ah"/><use transform="matrix(0.05,0,0,0.05,9,0)" xlink:href="#aX"/><use transform="matrix(0.05,0,0,0.05,18,0)" xlink:href="#ak"/><use transform="matrix(0.05,0,0,0.05,28,0)" xlink:href="#ah"/><use transform="matrix(0.05,0,0,0.05,37,0)" xlink:href="#ad"/><use transform="matrix(0.05,0,0,0.05,42,0)" xlink:href="#aj"/><use transform="matrix(0.05,0,0,0.05,52,0)" xlink:href="#ai"/><use transform="matrix(0.05,0,0,0.05,57.95,0)" xlink:href="#ag"/><use transform="matrix(0.05,0,0,0.05,67.95,0)" xlink:href="#aP"/><use transform="matrix(0.05,0,0,0.05,72.95,0)" xlink:href="#az"/><use transform="matrix(0.05,0,0,0.05,82.95,0)" xlink:href="#ap"/><use transform="matrix(0.05,0,0,0.05,92.95,0)" xlink:href="#an"/><use transform="matrix(0.05,0,0,0.05,102.95,0)" xlink:href="#ag"/><use transform="matrix(0.05,0,0,0.05,112.95,0)" xlink:href="#af"/></g><g id="y"><use transform="matrix(0.05,0,0,0.05,0,0)" xlink:href="#ah"/><use transform="matrix(0.05,0,0,0.05,9,0)" xlink:href="#aX"/><use transform="matrix(0.05,0,0,0.05,18,0)" xlink:href="#ak"/><use transform="matrix(0.05,0,0,0.05,28,0)" xlink:href="#ah"/><use transform="matrix(0.05,0,0,0.05,37,0)" xlink:href="#ad"/><use transform="matrix(0.05,0,0,0.05,42,0)" xlink:href="#al"/><use transform="matrix(0.05,0,0,0.05,52,0)" xlink:href="#ak"/><use transform="matrix(0.05,0,0,0.05,62,0)" xlink:href="#ac"/><use transform="matrix(0.05,0,0,0.05,67,0)" xlink:href="#ag"/></g><g id="z"><use transform="matrix(0.05,0,0,0.05,0,0)" xlink:href="#R"/><use transform="matrix(0.05,0,0,0.05,5,0)" xlink:href="#S"/><use transform="matrix(0.05,0,0,0.05,15.950000000000001,0)" xlink:href="#T"/><use transform="matrix(0.05,0,0,0.05,26.900000000000002,0)" xlink:href="#U"/><use transform="matrix(0.05,0,0,0.05,36.900000000000006,0)" xlink:href="#V"/><use transform="matrix(0.05,0,0,0.05,46.900000000000006,0)" xlink:href="#W"/><use transform="matrix(0.05,0,0,0.05,52.85,0)" xlink:href="#X"/><use transform="matrix(0.05,0,0,0.05,58.80000000000001,0)" xlink:href="#Y"/><use transform="matrix(0.05,0,0,0.05,69.75000000000001,0)" xlink:href="#S"/><use transform="matrix(0.05,0,0,0.05,80.70000000000002,0)" xlink:href="#T"/><use transform="matrix(0.05,0,0,0.05,91.65000000000002,0)" xlink:href="#Z"/><use transform="matrix(0.05,0,0,0.05,103.65000000000003,0)" xlink:href="#V"/><use transform="matrix(0.05,0,0,0.05,113.65000000000003,0)" xlink:href="#av"/><use transform="matrix(0.05,0,0,0.05,120.65000000000003,0)" xlink:href="#aJ"/><use transform="matrix(0.05,0,0,0.05,125.65000000000003,0)" xlink:href="#V"/><use transform="matrix(0.05,0,0,0.05,135.65000000000003,0)" xlink:href="#U"/></g><g id="A"><use transform="matrix(0.05,0,0,0.05,0,0)" xlink:href="#af"/><use transform="matrix(0.05,0,0,0.05,3.95,0)" xlink:href="#ak"/><use transform="matrix(0.05,0,0,0.05,13.949999999999998,0)" xlink:href="#ar"/><use transform="matrix(0.05,0,0,0.05,23.95,0)" xlink:href="#ah"/><use transform="matrix(0.05,0,0,0.05,32.95,0)" xlink:href="#ag"/><use transform="matrix(0.05,0,0,0.05,42.95,0)" xlink:href="#ac"/><use transform="matrix(0.05,0,0,0.05,47.95,0)" xlink:href="#ad"/><use transform="matrix(0.05,0,0,0.05,52.95,0)" xlink:href="#ae"/><use transform="matrix(0.05,0,0,0.05,56.900000000000006,0)" xlink:href="#al"/><use transform="matrix(0.05,0,0,0.05,66.9,0)" xlink:href="#aP"/><use transform="matrix(0.05,0,0,0.05,71.9,0)" xlink:href="#ak"/><use transform="matrix(0.05,0,0,0.05,81.9,0)" xlink:href="#aV"/><use transform="matrix(0.05,0,0,0.05,91.85000000000001,0)" xlink:href="#aB"/><use transform="matrix(0.05,0,0,0.05,100.85000000000001,0)" xlink:href="#aj"/><use transform="matrix(0.05,0,0,0.05,110.85000000000001,0)" xlink:href="#ag"/></g><path d="M63-220v92h138v28H63V0H30v-248h175v28H63" id="aY"/><g id="B"><use transform="matrix(0.05,0,0,0.05,0,0)" xlink:href="#af"/><use transform="matrix(0.05,0,0,0.05,3.95,0)" xlink:href="#ak"/><use transform="matrix(0.05,0,0,0.05,13.949999999999998,0)" xlink:href="#ar"/><use transform="matrix(0.05,0,0,0.05,23.95,0)" xlink:href="#ah"/><use transform="matrix(0.05,0,0,0.05,32.95,0)" xlink:href="#ag"/><use transform="matrix(0.05,0,0,0.05,42.95,0)" xlink:href="#ac"/><use transform="matrix(0.05,0,0,0.05,47.95,0)" xlink:href="#ad"/><use transform="matrix(0.05,0,0,0.05,52.95,0)" xlink:href="#af"/><use transform="matrix(0.05,0,0,0.05,56.900000000000006,0)" xlink:href="#ak"/><use transform="matrix(0.05,0,0,0.05,66.9,0)" xlink:href="#ar"/><use transform="matrix(0.05,0,0,0.05,76.9,0)" xlink:href="#aY"/><use transform="matrix(0.05,0,0,0.05,87.85000000000001,0)" xlink:href="#ak"/><use transform="matrix(0.05,0,0,0.05,97.85000000000001,0)" xlink:href="#ai"/><use transform="matrix(0.05,0,0,0.05,103.80000000000001,0)" xlink:href="#aw"/><use transform="matrix(0.05,0,0,0.05,118.75,0)" xlink:href="#ap"/><use transform="matrix(0.05,0,0,0.05,128.75,0)" xlink:href="#ac"/><use transform="matrix(0.05,0,0,0.05,133.75,0)" xlink:href="#aV"/><use transform="matrix(0.05,0,0,0.05,143.7,0)" xlink:href="#aB"/><use transform="matrix(0.05,0,0,0.05,152.7,0)" xlink:href="#aj"/><use transform="matrix(0.05,0,0,0.05,162.7,0)" xlink:href="#ag"/></g><g id="C"><use transform="matrix(0.05,0,0,0.05,0,0)" xlink:href="#af"/><use transform="matrix(0.05,0,0,0.05,3.95,0)" xlink:href="#ak"/><use transform="matrix(0.05,0,0,0.05,13.949999999999998,0)" xlink:href="#ar"/><use transform="matrix(0.05,0,0,0.05,23.95,0)" xlink:href="#ah"/><use transform="matrix(0.05,0,0,0.05,32.95,0)" xlink:href="#ag"/><use transform="matrix(0.05,0,0,0.05,42.95,0)" xlink:href="#ac"/><use transform="matrix(0.05,0,0,0.05,47.95,0)" xlink:href="#ad"/><use transform="matrix(0.05,0,0,0.05,52.95,0)" xlink:href="#af"/><use transform="matrix(0.05,0,0,0.05,56.900000000000006,0)" xlink:href="#ak"/><use transform="matrix(0.05,0,0,0.05,66.9,0)" xlink:href="#ar"/><use transform="matrix(0.05,0,0,0.05,76.9,0)" xlink:href="#aY"/><use transform="matrix(0.05,0,0,0.05,87.85000000000001,0)" xlink:href="#ak"/><use transform="matrix(0.05,0,0,0.05,97.85000000000001,0)" xlink:href="#ai"/><use transform="matrix(0.05,0,0,0.05,103.80000000000001,0)" xlink:href="#aw"/><use transform="matrix(0.05,0,0,0.05,118.75,0)" xlink:href="#ap"/><use transform="matrix(0.05,0,0,0.05,128.75,0)" xlink:href="#ac"/><use transform="matrix(0.05,0,0,0.05,133.75,0)" xlink:href="#aN"/><use transform="matrix(0.05,0,0,0.05,138.75,0)" xlink:href="#al"/><use transform="matrix(0.05,0,0,0.05,148.75,0)" xlink:href="#aP"/><use transform="matrix(0.05,0,0,0.05,153.75,0)" xlink:href="#ak"/></g><path d="M147 0L96-86 75-71V0H25v-261h50v150l67-79h53l-66 74L201 0h-54" id="aZ"/><g id="E"><use transform="matrix(0.05,0,0,0.05,0,0)" xlink:href="#U"/><use transform="matrix(0.05,0,0,0.05,10,0)" xlink:href="#aZ"/><use transform="matrix(0.05,0,0,0.05,20,0)" xlink:href="#S"/><use transform="matrix(0.05,0,0,0.05,30.950000000000003,0)" xlink:href="#U"/><use transform="matrix(0.05,0,0,0.05,40.95,0)" xlink:href="#X"/><use transform="matrix(0.05,0,0,0.05,46.900000000000006,0)" xlink:href="#as"/><use transform="matrix(0.05,0,0,0.05,59.85,0)" xlink:href="#S"/><use transform="matrix(0.05,0,0,0.05,70.80000000000001,0)" xlink:href="#at"/><use transform="matrix(0.05,0,0,0.05,81.75000000000001,0)" xlink:href="#au"/><use transform="matrix(0.05,0,0,0.05,91.75000000000001,0)" xlink:href="#V"/><use transform="matrix(0.05,0,0,0.05,101.75000000000001,0)" xlink:href="#aU"/><use transform="matrix(0.05,0,0,0.05,112.7,0)" xlink:href="#W"/></g><g id="F"><use transform="matrix(0.05,0,0,0.05,0,0)" xlink:href="#af"/><use transform="matrix(0.05,0,0,0.05,3.95,0)" xlink:href="#ak"/><use transform="matrix(0.05,0,0,0.05,13.949999999999998,0)" xlink:href="#ar"/><use transform="matrix(0.05,0,0,0.05,23.95,0)" xlink:href="#ah"/><use transform="matrix(0.05,0,0,0.05,32.95,0)" xlink:href="#ag"/><use transform="matrix(0.05,0,0,0.05,42.95,0)" xlink:href="#ac"/><use transform="matrix(0.05,0,0,0.05,47.95,0)" xlink:href="#ad"/><use transform="matrix(0.05,0,0,0.05,52.95,0)" xlink:href="#ah"/><use transform="matrix(0.05,0,0,0.05,61.95,0)" xlink:href="#am"/><use transform="matrix(0.05,0,0,0.05,71.95,0)" xlink:href="#an"/><use transform="matrix(0.05,0,0,0.05,81.95,0)" xlink:href="#aM"/><use transform="matrix(0.05,0,0,0.05,85.9,0)" xlink:href="#ag"/><use transform="matrix(0.05,0,0,0.05,95.9,0)" xlink:href="#ab"/><use transform="matrix(0.05,0,0,0.05,104.9,0)" xlink:href="#ac"/><use transform="matrix(0.05,0,0,0.05,109.9,0)" xlink:href="#aV"/><use transform="matrix(0.05,0,0,0.05,119.85000000000001,0)" xlink:href="#aB"/><use transform="matrix(0.05,0,0,0.05,128.85000000000002,0)" xlink:href="#aj"/><use transform="matrix(0.05,0,0,0.05,138.85000000000002,0)" xlink:href="#ag"/></g><g id="G"><use transform="matrix(0.05,0,0,0.05,0,0)" xlink:href="#af"/><use transform="matrix(0.05,0,0,0.05,3.95,0)" xlink:href="#ak"/><use transform="matrix(0.05,0,0,0.05,13.949999999999998,0)" xlink:href="#ar"/><use transform="matrix(0.05,0,0,0.05,23.95,0)" xlink:href="#ah"/><use transform="matrix(0.05,0,0,0.05,32.95,0)" xlink:href="#ag"/><use transform="matrix(0.05,0,0,0.05,42.95,0)" xlink:href="#ac"/><use transform="matrix(0.05,0,0,0.05,47.95,0)" xlink:href="#ad"/><use transform="matrix(0.05,0,0,0.05,52.95,0)" xlink:href="#af"/><use transform="matrix(0.05,0,0,0.05,56.900000000000006,0)" xlink:href="#ak"/><use transform="matrix(0.05,0,0,0.05,66.9,0)" xlink:href="#ar"/><use transform="matrix(0.05,0,0,0.05,76.9,0)" xlink:href="#aY"/><use transform="matrix(0.05,0,0,0.05,87.85000000000001,0)" xlink:href="#ak"/><use transform="matrix(0.05,0,0,0.05,97.85000000000001,0)" xlink:href="#ai"/><use transform="matrix(0.05,0,0,0.05,103.80000000000001,0)" xlink:href="#aw"/><use transform="matrix(0.05,0,0,0.05,118.75,0)" xlink:href="#ap"/><use transform="matrix(0.05,0,0,0.05,128.75,0)" xlink:href="#ac"/><use transform="matrix(0.05,0,0,0.05,133.75,0)" xlink:href="#aV"/><use transform="matrix(0.05,0,0,0.05,143.7,0)" xlink:href="#aB"/><use transform="matrix(0.05,0,0,0.05,152.7,0)" xlink:href="#aj"/><use transform="matrix(0.05,0,0,0.05,162.7,0)" xlink:href="#ag"/></g><g id="H"><use transform="matrix(0.05,0,0,0.05,0,0)" xlink:href="#R"/><use transform="matrix(0.05,0,0,0.05,5,0)" xlink:href="#S"/><use transform="matrix(0.05,0,0,0.05,15.950000000000001,0)" xlink:href="#T"/><use transform="matrix(0.05,0,0,0.05,26.900000000000002,0)" xlink:href="#U"/><use transform="matrix(0.05,0,0,0.05,36.900000000000006,0)" xlink:href="#V"/><use transform="matrix(0.05,0,0,0.05,46.900000000000006,0)" xlink:href="#W"/><use transform="matrix(0.05,0,0,0.05,52.85,0)" xlink:href="#X"/><use transform="matrix(0.05,0,0,0.05,58.80000000000001,0)" xlink:href="#Z"/><use transform="matrix(0.05,0,0,0.05,70.80000000000001,0)" xlink:href="#aL"/><use transform="matrix(0.05,0,0,0.05,81.75000000000001,0)" xlink:href="#aK"/><use transform="matrix(0.05,0,0,0.05,92.70000000000002,0)" xlink:href="#aW"/><use transform="matrix(0.05,0,0,0.05,97.70000000000002,0)" xlink:href="#V"/><use transform="matrix(0.05,0,0,0.05,107.7,0)" xlink:href="#au"/><use transform="matrix(0.05,0,0,0.05,117.7,0)" xlink:href="#W"/></g><g id="I"><use transform="matrix(0.05,0,0,0.05,0,0)" xlink:href="#af"/><use transform="matrix(0.05,0,0,0.05,3.95,0)" xlink:href="#ak"/><use transform="matrix(0.05,0,0,0.05,13.949999999999998,0)" xlink:href="#ar"/><use transform="matrix(0.05,0,0,0.05,23.95,0)" xlink:href="#ah"/><use transform="matrix(0.05,0,0,0.05,32.95,0)" xlink:href="#ag"/><use transform="matrix(0.05,0,0,0.05,42.95,0)" xlink:href="#ac"/><use transform="matrix(0.05,0,0,0.05,47.95,0)" xlink:href="#ad"/><use transform="matrix(0.05,0,0,0.05,52.95,0)" xlink:href="#ap"/><use transform="matrix(0.05,0,0,0.05,62.95,0)" xlink:href="#aP"/><use transform="matrix(0.05,0,0,0.05,67.6,0)" xlink:href="#aP"/><use transform="matrix(0.05,0,0,0.05,72.6,0)" xlink:href="#ag"/><use transform="matrix(0.05,0,0,0.05,82.6,0)" xlink:href="#ab"/><use transform="matrix(0.05,0,0,0.05,91.6,0)" xlink:href="#ac"/><use transform="matrix(0.05,0,0,0.05,96.6,0)" xlink:href="#ah"/></g><g id="J"><use transform="matrix(0.05,0,0,0.05,0,0)" xlink:href="#af"/><use transform="matrix(0.05,0,0,0.05,3.95,0)" xlink:href="#ak"/><use transform="matrix(0.05,0,0,0.05,13.949999999999998,0)" xlink:href="#ar"/><use transform="matrix(0.05,0,0,0.05,23.95,0)" xlink:href="#ah"/><use transform="matrix(0.05,0,0,0.05,32.95,0)" xlink:href="#ag"/><use transform="matrix(0.05,0,0,0.05,42.95,0)" xlink:href="#ac"/><use transform="matrix(0.05,0,0,0.05,47.95,0)" xlink:href="#ad"/><use transform="matrix(0.05,0,0,0.05,52.95,0)" xlink:href="#aj"/><use transform="matrix(0.05,0,0,0.05,62.95,0)" xlink:href="#ap"/><use transform="matrix(0.05,0,0,0.05,72.95,0)" xlink:href="#ai"/><use transform="matrix(0.05,0,0,0.05,78.9,0)" xlink:href="#ac"/><use transform="matrix(0.05,0,0,0.05,83.9,0)" xlink:href="#aO"/><use transform="matrix(0.05,0,0,0.05,97.9,0)" xlink:href="#aP"/></g><g id="K"><use transform="matrix(0.05,0,0,0.05,0,0)" xlink:href="#af"/><use transform="matrix(0.05,0,0,0.05,3.95,0)" xlink:href="#ak"/><use transform="matrix(0.05,0,0,0.05,13.949999999999998,0)" xlink:href="#ar"/><use transform="matrix(0.05,0,0,0.05,23.95,0)" xlink:href="#ah"/><use transform="matrix(0.05,0,0,0.05,32.95,0)" xlink:href="#ag"/><use transform="matrix(0.05,0,0,0.05,42.95,0)" xlink:href="#ac"/><use transform="matrix(0.05,0,0,0.05,47.95,0)" xlink:href="#ad"/><use transform="matrix(0.05,0,0,0.05,52.95,0)" xlink:href="#ae"/><use transform="matrix(0.05,0,0,0.05,56.900000000000006,0)" xlink:href="#ah"/><use transform="matrix(0.05,0,0,0.05,65.9,0)" xlink:href="#aC"/><use transform="matrix(0.05,0,0,0.05,77.9,0)" xlink:href="#aj"/><use transform="matrix(0.05,0,0,0.05,87.9,0)" xlink:href="#ag"/><use transform="matrix(0.05,0,0,0.05,97.9,0)" xlink:href="#ab"/><use transform="matrix(0.05,0,0,0.05,106.9,0)" xlink:href="#ae"/><use transform="matrix(0.05,0,0,0.05,110.85000000000001,0)" xlink:href="#aP"/><use transform="matrix(0.05,0,0,0.05,115.85000000000001,0)" xlink:href="#ae"/><use transform="matrix(0.05,0,0,0.05,119.80000000000001,0)" xlink:href="#ab"/></g><g id="L"><use transform="matrix(0.05,0,0,0.05,0,0)" xlink:href="#af"/><use transform="matrix(0.05,0,0,0.05,3.95,0)" xlink:href="#ak"/><use transform="matrix(0.05,0,0,0.05,13.949999999999998,0)" xlink:href="#ar"/><use transform="matrix(0.05,0,0,0.05,23.95,0)" xlink:href="#ah"/><use transform="matrix(0.05,0,0,0.05,32.95,0)" xlink:href="#ag"/><use transform="matrix(0.05,0,0,0.05,42.95,0)" xlink:href="#ac"/><use transform="matrix(0.05,0,0,0.05,47.95,0)" xlink:href="#ad"/><use transform="matrix(0.05,0,0,0.05,52.95,0)" xlink:href="#ap"/><use transform="matrix(0.05,0,0,0.05,62.95,0)" xlink:href="#ah"/><use transform="matrix(0.05,0,0,0.05,71.95,0)" xlink:href="#aj"/><use transform="matrix(0.05,0,0,0.05,81.95,0)" xlink:href="#ag"/><use transform="matrix(0.05,0,0,0.05,91.95,0)" xlink:href="#ab"/><use transform="matrix(0.05,0,0,0.05,100.95,0)" xlink:href="#ac"/><use transform="matrix(0.05,0,0,0.05,105.95,0)" xlink:href="#aO"/><use transform="matrix(0.05,0,0,0.05,119.95,0)" xlink:href="#aP"/></g><g id="M"><use transform="matrix(0.05,0,0,0.05,0,0)" xlink:href="#ah"/><use transform="matrix(0.05,0,0,0.05,9,0)" xlink:href="#aX"/><use transform="matrix(0.05,0,0,0.05,18,0)" xlink:href="#ak"/><use transform="matrix(0.05,0,0,0.05,28,0)" xlink:href="#ah"/><use transform="matrix(0.05,0,0,0.05,37,0)" xlink:href="#ad"/><use transform="matrix(0.05,0,0,0.05,42,0)" xlink:href="#an"/><use transform="matrix(0.05,0,0,0.05,52,0)" xlink:href="#ai"/><use transform="matrix(0.05,0,0,0.05,57.95,0)" xlink:href="#ak"/><use transform="matrix(0.05,0,0,0.05,67.95,0)" xlink:href="#ap"/><use transform="matrix(0.05,0,0,0.05,77.95,0)" xlink:href="#aa"/><use transform="matrix(0.05,0,0,0.05,87.95,0)" xlink:href="#ag"/><use transform="matrix(0.05,0,0,0.05,97.95,0)" xlink:href="#ai"/></g><g id="N"><use transform="matrix(0.05,0,0,0.05,0,0)" xlink:href="#ah"/><use transform="matrix(0.05,0,0,0.05,9,0)" xlink:href="#aX"/><use transform="matrix(0.05,0,0,0.05,18,0)" xlink:href="#ak"/><use transform="matrix(0.05,0,0,0.05,28,0)" xlink:href="#ah"/><use transform="matrix(0.05,0,0,0.05,37,0)" xlink:href="#ad"/><use transform="matrix(0.05,0,0,0.05,42,0)" xlink:href="#al"/><use transform="matrix(0.05,0,0,0.05,52,0)" xlink:href="#ap"/><use transform="matrix(0.05,0,0,0.05,62,0)" xlink:href="#ai"/><use transform="matrix(0.05,0,0,0.05,67.95,0)" xlink:href="#ai"/><use transform="matrix(0.05,0,0,0.05,73.9,0)" xlink:href="#ak"/><use transform="matrix(0.05,0,0,0.05,83.9,0)" xlink:href="#aA"/><use transform="matrix(0.05,0,0,0.05,96.85000000000001,0)" xlink:href="#ag"/><use transform="matrix(0.05,0,0,0.05,106.85000000000001,0)" xlink:href="#ai"/></g><g id="O"><use transform="matrix(0.05,0,0,0.05,0,0)" xlink:href="#aa"/><use transform="matrix(0.05,0,0,0.05,10,0)" xlink:href="#ab"/><use transform="matrix(0.05,0,0,0.05,19,0)" xlink:href="#ap"/><use transform="matrix(0.05,0,0,0.05,29,0)" xlink:href="#ac"/><use transform="matrix(0.05,0,0,0.05,34,0)" xlink:href="#ad"/><use transform="matrix(0.05,0,0,0.05,39,0)" xlink:href="#aa"/><use transform="matrix(0.05,0,0,0.05,49,0)" xlink:href="#ap"/><use transform="matrix(0.05,0,0,0.05,59,0)" xlink:href="#ac"/><use transform="matrix(0.05,0,0,0.05,64,0)" xlink:href="#ap"/><use transform="matrix(0.05,0,0,0.05,74,0)" xlink:href="#ah"/><use transform="matrix(0.05,0,0,0.05,83,0)" xlink:href="#ag"/><use transform="matrix(0.05,0,0,0.05,93,0)" xlink:href="#ac"/></g><g id="P"><use transform="matrix(0.05,0,0,0.05,0,0)" xlink:href="#aG"/><use transform="matrix(0.05,0,0,0.05,10.950000000000001,0)" xlink:href="#au"/><use transform="matrix(0.05,0,0,0.05,20.950000000000003,0)" xlink:href="#aH"/><use transform="matrix(0.05,0,0,0.05,30.950000000000003,0)" xlink:href="#W"/><use transform="matrix(0.05,0,0,0.05,36.900000000000006,0)" xlink:href="#X"/><use transform="matrix(0.05,0,0,0.05,42.85000000000001,0)" xlink:href="#as"/><use transform="matrix(0.05,0,0,0.05,55.80000000000001,0)" xlink:href="#aH"/><use transform="matrix(0.05,0,0,0.05,65.80000000000001,0)" xlink:href="#W"/><use transform="matrix(0.05,0,0,0.05,71.75000000000001,0)" xlink:href="#aH"/><use transform="matrix(0.05,0,0,0.05,81.75000000000001,0)" xlink:href="#R"/><use transform="matrix(0.05,0,0,0.05,86.75000000000001,0)" xlink:href="#S"/><use transform="matrix(0.05,0,0,0.05,97.70000000000002,0)" xlink:href="#T"/></g><path d="M205 0l-28-72H64L36 0H1l101-248h38L239 0h-34zm-38-99l-47-123c-12 45-31 82-46 123h93" id="ba"/><g id="Q"><use transform="matrix(0.05,0,0,0.05,0,0)" xlink:href="#ai"/><use transform="matrix(0.05,0,0,0.05,5.95,0)" xlink:href="#aa"/><use transform="matrix(0.05,0,0,0.05,15.949999999999998,0)" xlink:href="#aP"/><use transform="matrix(0.05,0,0,0.05,20.95,0)" xlink:href="#ah"/><use transform="matrix(0.05,0,0,0.05,29.950000000000003,0)" xlink:href="#ad"/><use transform="matrix(0.05,0,0,0.05,34.95,0)" xlink:href="#ah"/><use transform="matrix(0.05,0,0,0.05,43.95,0)" xlink:href="#ag"/><use transform="matrix(0.05,0,0,0.05,53.95,0)" xlink:href="#ag"/><use transform="matrix(0.05,0,0,0.05,63.95,0)" xlink:href="#ba"/><use transform="matrix(0.05,0,0,0.05,75.95,0)" xlink:href="#af"/><use transform="matrix(0.05,0,0,0.05,79.9,0)" xlink:href="#ah"/><use transform="matrix(0.05,0,0,0.05,88.9,0)" xlink:href="#ak"/></g></defs></g></svg>